<?xml version="1.0" encoding="utf-8"?>
<!-- Generator: Adobe Illustrator 26.0.1, SVG Export Plug-In . SVG Version: 6.00 Build 0)  -->
<svg version="1.1" xmlns="http://www.w3.org/2000/svg" xmlns:xlink="http://www.w3.org/1999/xlink" x="0px" y="0px"
	 viewBox="0 0 500 500" style="enable-background:new 0 0 500 500;" xml:space="preserve">
<style type="text/css">
	.st0{fill:#DDECFF;}
	.st1{fill:#60A8FF;}
	.st2{fill:#223A7A;}
	.st3{fill:#FFFFFF;}
	.st4{fill:#1C83FF;}
	.st5{fill:#FF9D8C;}
	.st6{fill:#8593B6;}
	.st7{fill:#8E9BBB;}
	.st8{fill:#DEE1EB;}
	.st9{fill:#818FB3;}
	.st10{fill:#6BAEFF;}
	.st11{fill:#43588E;}
	.st12{fill:#F6F7FA;}
	.st13{fill:#D9DEE8;}
	.st14{fill:#596B9B;}
	.st15{fill:#7A89AF;}
	.st16{fill:#BDC4D7;}
	.st17{fill:#6F7FA9;}
	.st18{fill:#9CA6C3;}
	.st19{fill:#D2E6FF;}
	.st20{fill:#FF5F42;}
	.st21{fill:#67ACFF;}
</style>
<g id="BACKGROUND">
	<path class="st0" d="M88.5,416.9c0,0-61.4-43.7-79.1-118.2C-8.3,224.3,18.7,134,69.9,88.4c51.2-45.6,143.3-14.9,184.3,23.3
		s40.9,38.2,40.9,38.2s39.1,21.4,90.3,19.5c51.2-1.9,96.8,67.9,108.9,122.8c12.1,54.9-16.8,127.5-16.8,127.5L88.5,416.9z"/>
	<path class="st0" d="M60.6,428.1c0,0-42.8-23.3-54-77.2s37.2-103.3,41.9-130.3c4.7-27-5.6-60.5,37.2-86.5
		c42.8-26.1,119.1-16.8,148-23.3c28.8-6.5,62.3-51.2,120-40.9c57.7,10.2,113.5,40.9,116.3,107.9c2.8,67-18.6,68.9,2.8,105.2
		c21.4,36.3,29.8,61.4,19.5,98.6c-10.2,37.2-31.6,47.5-31.6,47.5L60.6,428.1z"/>
	<path class="st0" d="M150,416c-2.7-2.8-41.7-81,1.8-152.6c43.5-71.7,152.7-63.3,196.2-35.4s64.8,64.2,69.2,102.4
		c4.4,38.2-24.9,97.7-24.9,97.7L150,416z"/>
</g>
<g id="OBJECTS">
	<g>
		<g>
			<path class="st1" d="M456.8,284.4h-51.4c-2.8,0-5-2.2-5-5v-26.3c0-2.8,2.2-5,5-5h51.4c2.8,0,5,2.2,5,5v26.3
				C461.8,282.2,459.6,284.4,456.8,284.4z"/>
			<polygon class="st1" points="431.1,298.6 439.1,279.7 423.2,279.7 			"/>
		</g>
		<g>
			<g>
				<g>
					<polygon class="st2" points="430.9,260 445.3,260 445.3,262.1 452.3,258.1 445.3,254 445.3,256.1 430.9,256.1 					"/>
				</g>
				<g>
					<polygon class="st3" points="452.3,268.3 438,268.3 438,266.2 430.9,270.2 438,274.3 438,272.2 452.3,272.2 					"/>
				</g>
			</g>
			<g>
				<path class="st2" d="M422.1,272l-0.7,0.2c0,0-2.1-2.4-3.2-5.1c-1.1-2.6-1.1-5.9-1.1-5.9l0.5-0.2l-3-7.3c-0.5,0.4-1.1,1-1.5,1.7
					c-1.7,2.9-1.5,7.4,0.2,11.7c1.7,4.4,3.6,8.2,6.9,10.7c2,1.4,3.7,1.7,5,1.5L422.1,272z"/>
				<path class="st2" d="M424.3,271.1l-0.9,0.3l3.1,7.4c0.4-0.1,0.7-0.3,0.9-0.4c0.8-0.4,1.2-1.4,0.8-2.3l-1.6-4.1
					C426.2,271.2,425.2,270.8,424.3,271.1z"/>
				<path class="st2" d="M416.9,252.5c-0.4,0.1-0.8,0.3-1.2,0.6l3.1,7.4l1-0.4c0.9-0.4,1.3-1.4,1-2.3l-1.6-4.2
					C418.8,252.6,417.8,252.2,416.9,252.5z"/>
			</g>
		</g>
	</g>
	<g>
		<path class="st4" d="M135.5,403.4v-83.8c0,0-0.9-22.6,10.9-29.1s61.9-3,61.9-3v115.9H135.5z"/>
	</g>
	<g>
		<g>
			<path class="st5" d="M223.9,209.2c0,0-3,25.4-4.2,27.5c-1.2,2.1-1.2,2.1-1.2,2.1l-5.8,4c0,0,11.2,15.8,24.9,18.4
				c13.7,2.6,12.6-5.6,12.6-5.6l-2.1-4.4l2.8-24.2C250.9,226.9,226,215.5,223.9,209.2z"/>
		</g>
		<path class="st3" d="M205.5,244.8l9.1-4c0,0,5.8,9.5,19.3,15.1c13.5,5.6,13.7,2.3,14.4,0c0.7-2.3-0.2-4.9-0.2-4.9l1-8.1l5.4,1.8
			l18.7,151.5l-48.2,2.3L205.5,244.8z"/>
		<g>
			<path class="st2" d="M250,243.1c0,0,3.3,7.5,6.3,25.2c3,17.7,5.8,47.5,6.5,67.9c0.7,20.5,1.2,67.2,1.2,67.2s60,0,60.7,0
				s4.9-23,4.9-23S303,357.7,301.6,354c-0.9-2.5-0.5-48.5-4.4-69.6c-4-21.2-9.1-25.4-19.8-30.7C266.4,248.2,250,243.1,250,243.1z"/>
		</g>
		<g>
			<path class="st6" d="M281.6,376.8c-0.3,0-0.6-0.3-0.6-0.6c0-1.7-0.3-25.3-0.6-48.1c-0.3-22.9-0.6-46.5-0.6-48.2
				c0-0.3,0.3-0.6,0.6-0.6s0.6,0.3,0.6,0.6c0,1.7,0.3,25.3,0.6,48.1c0.3,22.9,0.6,46.5,0.6,48.2
				C282.2,376.5,281.9,376.8,281.6,376.8z"/>
		</g>
		<g>
			<path class="st2" d="M160.6,371.1l-0.5,32.3h70.7c0,0,3-27.5,1.9-30C231.6,370.9,160.6,371.1,160.6,371.1z"/>
		</g>
		<g>
			<path class="st7" d="M239.4,235.9c2.9,2.3,6.8,4.2,9.9,5.3l1.7-14.4c0,0-18.7-8.6-25-14.9C227.2,219.2,230.5,228.8,239.4,235.9z"
				/>
		</g>
		<g>
			<path class="st5" d="M272.8,162c0,0,4.9,8.4,5.8,18.6c0.9,10.2,0,36.5-8.4,47.7c-8.4,11.2-25.8,7.9-33.7,1.2
				c-7.3-6.2-14.4-13-16.3-26.5c-1.9-13.5,4-39.1,20.5-44.4C257.2,153.1,272.8,162,272.8,162z"/>
		</g>
		<g>
			<g>
				<path class="st5" d="M293.8,388.8c0,0-0.8,0-2.1,0c-0.3,0-0.6,0-1,0c-1.2,0-2.7-0.1-4.1-0.1c-0.3,0-0.7,0-1,0
					c-1.5,0-2.7,0.1-3.9,0.1h0c-0.2,0-0.6,0-0.9,0c-0.1,0-0.3,0-0.4,0c-0.7-0.1-0.8-0.3-1.5-0.6c-0.9-0.4-13.7-3.3-24.1-3.2
					c-10.4,0-19.7,0.8-21.2-0.5c-1.5-1.3-2.5-14.3,6.4-15.2l10.9,4.1c0,0,24.9-3,34,3.8C294,383.8,293.8,388.8,293.8,388.8z"/>
			</g>
			<g>
				<g>
					<path class="st2" d="M281.7,388.7c-0.2,0-0.6,0-0.9,0c-0.2-0.4-0.7-1-1-1.3c-2.8-2.9-9.6-4.7-12.1-5.3
						c-0.2-0.1-0.4-0.3-0.3-0.5c0-0.2,0.3-0.4,0.5-0.3c3.6,0.9,11.2,3.1,13.4,6.7C281.4,388.1,281.6,388.5,281.7,388.7z"/>
				</g>
			</g>
			<g>
				<g>
					<path class="st2" d="M286.6,388.6c-0.3,0-0.7,0-1,0c-3.1-5.6-8.1-7.2-14.3-9.2l-0.4-0.1c-0.2-0.1-0.3-0.3-0.3-0.5
						c0.1-0.2,0.3-0.3,0.5-0.3l0.4,0.1C278.1,380.7,283.4,382.4,286.6,388.6z"/>
				</g>
			</g>
			<g>
				<g>
					<path class="st2" d="M291.7,388.8c-0.3,0-0.6,0-1,0c-1.9-3.9-8-10.5-16.2-12c-0.2,0-0.4-0.3-0.3-0.5c0.1-0.2,0.3-0.4,0.5-0.3
						C283.1,377.5,289.9,384.4,291.7,388.8z"/>
				</g>
			</g>
		</g>
		<g>
			<path class="st2" d="M225.8,191.4c0,0,5.1-2.4,8.7-9.3c3.6-6.9,3.1-13,3.1-13s6.5-1,16.3,1.9c9.8,2.9,21.4,6.9,31.2,1.3
				c9.8-5.6,9.8-14.5,5-18.3c-5.3-4.2-15.9-1.6-15.9-1.6s4.1-4,1.9-6.3c-2.2-2.3-10.2,0.7-10.2,0.7s-9.8-7.8-28.3-6.9
				c-18.5,0.9-27.3,13.8-28.4,28.3c-1,14.4,4.2,28.8,4.2,28.8L225.8,191.4z"/>
		</g>
		<g>
			<g>
				<path class="st7" d="M263.3,194.9c-1,2.6-1,5.6-1.3,8.3c-0.2,2.1-0.6,4.6,1.4,6.1c0.9,0.7,5.3,2.5,3.1,4
					c-0.9,0.6-2.3,0.4-3.3,0.4c-0.7,0-1.4-0.1-2-0.1c-0.7-0.1-1.4-0.3-2.2-0.3c-0.4,0-0.6,0.6-0.2,0.8c1.2,0.7,2.9,1,4.3,1
					c1.4,0.1,2.3,0,3.5-0.6c0.8-0.4,1.5-0.9,1.6-1.8c0.1-1-0.6-1.9-1.4-2.5c-0.9-0.7-2-1-2.8-1.6c-1.2-0.9-1.1-2.4-1-3.7
					c0.2-3.3,1-6.6,1.3-9.9C264.2,194.5,263.5,194.5,263.3,194.9L263.3,194.9z"/>
			</g>
		</g>
		<g>
			<path class="st2" d="M272.8,202.6c-0.3,2-1.8,3.3-3.2,3.1c-1.4-0.2-2.3-2-1.9-4c0.3-2,1.8-3.3,3.2-3.1
				C272.3,198.9,273.2,200.7,272.8,202.6z"/>
		</g>
		<g>
			<path class="st2" d="M255,201.1c-0.3,2.1-1.8,3.6-3.3,3.4c-1.5-0.2-2.5-2.1-2.2-4.2c0.3-2.1,1.8-3.6,3.3-3.4
				C254.3,197,255.3,198.9,255,201.1z"/>
		</g>
		<g>
			<g>
				<path class="st2" d="M268.7,194.5c1.1,0.2,2.2,0,3.3,0.1c0.3,0,0.5,0.1,0.8,0.1c0.2,0-0.3-0.1-0.1,0c0.1,0,0.1,0,0.2,0
					c0.1,0,0.3,0.1,0.4,0.1c0.2,0.1,0.5,0.1,0.7,0.2c0.2,0,0.4,0.1,0.7,0.1c0.1,0,0.2,0,0.4,0c-0.1,0-0.2,0-0.2,0c0,0,0.4,0,0.4,0
					c0.6-0.1,1-0.9,0.8-1.5c-0.1-0.2-0.1-0.3-0.2-0.5c0-0.1-0.1-0.1-0.1-0.2c0,0.1,0.1,0.1,0.1,0.2c0-0.1-0.1-0.1-0.1-0.2
					c-0.1-0.1-0.1-0.2-0.2-0.2c-0.1-0.1-0.2-0.1-0.3-0.2c-0.3-0.2-0.7-0.3-1-0.4c-0.6-0.2-1.3-0.3-2-0.3c-0.7,0-1.3,0.1-2,0.2
					c-0.6,0.1-1.2,0.3-1.7,0.6c-0.4,0.3-0.6,0.6-0.5,1.1C267.9,194,268.2,194.5,268.7,194.5L268.7,194.5z"/>
			</g>
		</g>
		<g>
			<g>
				<path class="st2" d="M256.3,191.4c-0.1-0.1-0.3-0.2-0.5-0.2c-0.1-0.1-0.5-0.2-0.2-0.1c-0.1-0.1-0.2-0.1-0.3-0.2
					c-0.5-0.2-0.9-0.4-1.4-0.5c-1.1-0.3-2.2-0.3-3.3-0.2c-1.2,0.1-2.2,0.4-3.2,1c-0.1,0.1-0.3,0.2-0.4,0.3c-0.1,0.1-0.2,0.2-0.2,0.3
					c0,0,0-0.1,0.1-0.1c-0.3,0.2-0.5,0.6-0.5,0.9c0,0.4,0.2,0.7,0.5,0.8c0.4,0.2,0.7,0.1,1.1,0c-0.2,0-0.4,0-0.6,0
					c0.3,0.1,0.6,0.1,0.9,0c0,0,0.3-0.1,0.1,0c-0.2,0,0.3,0,0.4,0c0.1,0,0.4,0,0,0c0.1,0,0.1,0,0.2,0c0.2,0,0.4,0,0.5-0.1
					c0.8-0.1,1.5-0.1,2.3-0.1c0.7,0,1.4,0,2.2,0c0.3,0,0.6,0,0.9,0c0.2,0,0.1,0,0,0c0.1,0,0.1,0,0.2,0c0.1,0,0.3,0.1,0.4,0.1
					c0.5,0.2,1.1-0.2,1.3-0.6C256.9,192.3,256.7,191.7,256.3,191.4L256.3,191.4z"/>
			</g>
		</g>
		<g>
			<path class="st2" d="M261.8,223.8c1.1-2.1,3-3.7,5.3-4.7c-1.9-0.2-11.2-1.1-13.5,0.3c-2.6,1.5,0.5,7.4,5.9,7.7
				c0.6,0,1.1,0,1.6-0.1C261,225.8,261.3,224.8,261.8,223.8z"/>
		</g>
		<g>
			<path class="st8" d="M219.3,211.3c0,0,0.9,3.6,6.3,7.8c5.4,4.2,13.1,7.3,13.1,7.3l0.6-2.7c0,0-8-3.5-11.7-7.3
				c-3.7-3.8-4.2-5.9-4.2-5.9L219.3,211.3z"/>
		</g>
		<g>
			<path class="st2" d="M240.2,221.6c4.3-0.2,6.7,3.2,7,5.4c0.3,2.2-1.8,4.7-6.6,2.5C234.6,226.8,235.9,221.8,240.2,221.6z"/>
		</g>
		<g>
			<path class="st8" d="M222.6,184.6c0,0,1.9-13.4,10.8-22.4c17.1-17.3,31.6-16.3,31.6-16.3s-0.1-2.4-5.6-4.3
				c-5.1-1.7-7.4-0.8-7.4-0.8s-14.1,1.2-25.9,14.3C214.3,168.2,213,185,213,185L222.6,184.6z"/>
		</g>
		<g>
			<g>
				<path class="st3" d="M221.4,183c-11.2-1.9-17.4,6.9-17.9,15.7c-0.5,8.8,6,15.6,14.5,14.9C237.3,212.1,235.1,185.3,221.4,183z"/>
			</g>
			<g>
				<path class="st9" d="M215.8,205c-3,0-5.5-1.5-6.9-4.1c-1.5-2.8-1.4-6.3,0.3-8.8c0.1-0.2,0.4-0.2,0.6-0.1
					c0.2,0.1,0.2,0.4,0.1,0.6c-1.6,2.3-1.7,5.4-0.3,7.9c1.3,2.4,3.6,3.8,6.4,3.7c2.6-0.1,4.7-1.2,6.1-3.3c1.6-2.3,1.9-5.6,0.9-8.3
					c-1-2.6-3.8-4.5-6.3-4.1c-0.2,0-0.4-0.1-0.5-0.4c0-0.2,0.1-0.4,0.4-0.5c2.9-0.4,6,1.6,7.2,4.7c1.1,2.9,0.7,6.5-1,9
					c-1.5,2.3-3.9,3.6-6.8,3.7C215.9,205,215.9,205,215.8,205z"/>
			</g>
		</g>
		<g>
			<path class="st2" d="M207.6,241.5c0,0-34,8.4-45.8,21.9s-17.4,80-17.7,92.4c-0.2,12.3,8.4,17.4,13.5,20.9
				c5.1,3.5,27.7,9.8,45.8,10.7s35.4,0,35.4,0s-0.1-4,2.7-9.8c2.6-5.4,5.9-6.5,5.9-6.5l-15.6-5.6c0,0-2.7-48.9-7-72.6
				C220,265.7,207.6,241.5,207.6,241.5z"/>
		</g>
		<g>
			<path class="st6" d="M263.9,357.7c-0.1,0-0.2,0-0.2,0c-0.3-0.1-0.4-0.5-0.3-0.7c3.2-7.2,6.5-21.3,8.3-31.2l0.2-0.8
				c0.6-2.9,1.3-6.5-0.1-9c-0.7-1.3-2.3-4-3.9-6.7c-1.6-2.8-3.1-5.4-3.5-6.1c-0.8-1.5,1.8-5.6,5.5-11.1c1-1.5,1.9-2.8,2.4-3.7
				c1.3-2.3,0.4-4.4-0.6-6.9l-0.3-0.8c-0.9-2.3-2-4.6-3-6.8c-0.4-0.9-0.8-1.8-1.2-2.7c-0.5-1.2-1.1-2.4-1.6-3.7
				c-3.3-7.3-6.7-14.9-11-22.2c-0.2-0.3-0.1-0.6,0.2-0.8c0.3-0.2,0.6-0.1,0.8,0.2c4.4,7.4,7.8,15,11.1,22.3c0.6,1.2,1.1,2.5,1.6,3.7
				c0.4,0.9,0.8,1.8,1.2,2.7c1,2.2,2.1,4.5,3,6.8l0.3,0.8c1,2.5,2.1,5.1,0.5,7.9c-0.5,0.9-1.4,2.2-2.4,3.7c-1.9,2.9-6,8.9-5.4,10
				c0.4,0.8,1.9,3.4,3.5,6.1c1.5,2.7,3.2,5.4,3.9,6.7c1.6,2.9,0.9,6.7,0.3,9.8l-0.2,0.8c-0.7,3.6-4.3,22-8.4,31.4
				C264.4,357.6,264.2,357.7,263.9,357.7z"/>
		</g>
		<g>
			<path class="st6" d="M230.8,359.7c-0.1,0-0.3-0.1-0.4-0.2c-2.6-2.7-15.4-24.7-16.3-28.9c-0.5-2.3,0.8-8,2-13.6
				c1-4.3,2-8.8,1.7-10c-0.4-1.8-3.7-4.5-6.8-7c-3.8-3.1-7.7-6.3-8.5-9.2c-0.9-3.3-0.1-23.9,0.4-37.6c0.2-4.9,0.3-8.8,0.3-10.2
				c0-0.3,0.3-0.6,0.6-0.6c0,0,0,0,0,0c0.3,0,0.6,0.3,0.6,0.6c0,1.4-0.1,5.3-0.3,10.2c-0.5,12.8-1.2,34.1-0.4,37.2
				c0.7,2.5,4.6,5.8,8.1,8.6c3.4,2.8,6.7,5.5,7.2,7.7c0.3,1.5-0.6,5.7-1.7,10.5c-1.2,5.2-2.5,11.1-2,13.1c0.9,4.1,13.4,25.7,16,28.3
				c0.2,0.2,0.2,0.6,0,0.8C231.1,359.6,230.9,359.7,230.8,359.7z"/>
		</g>
		<g>
			<path class="st6" d="M185.1,350C185,350,185,350,185.1,350c-0.4,0-0.6-0.3-0.6-0.6c0.4-2.9,6.9-61.2,7.2-65.6
				c0-0.3,0.3-0.6,0.6-0.5c0.3,0,0.5,0.3,0.5,0.6c-0.3,4.5-6.8,62.8-7.2,65.7C185.6,349.8,185.3,350,185.1,350z"/>
		</g>
		<g>
			<path class="st6" d="M231.4,365.8c-0.1,0-0.1,0-0.2,0c-1.4-0.6-7.7-2.7-15.7-5.4c-16.1-5.4-38.3-12.9-42.5-15.1
				c-0.3-0.1-0.4-0.5-0.2-0.8c0.1-0.3,0.5-0.4,0.8-0.2c4.1,2.1,27.1,9.9,42.3,15c8,2.7,14.3,4.8,15.8,5.4c0.3,0.1,0.4,0.4,0.3,0.7
				C231.8,365.7,231.6,365.8,231.4,365.8z"/>
		</g>
		<g>
			<path class="st6" d="M223.6,389c-14.2,0-41.8-2.6-62.7-10c-0.3-0.1-0.4-0.4-0.3-0.7c0.1-0.3,0.4-0.4,0.7-0.3
				c26.4,9.4,63.4,10.9,70.3,9.4c0.3-0.1,0.6,0.1,0.7,0.4c0.1,0.3-0.1,0.6-0.4,0.7C230.4,388.8,227.5,389,223.6,389z"/>
		</g>
	</g>
	<g>
		<g>
			<g>
				<path class="st10" d="M61,249.4c4.4,3.9,10,6.4,13.9,10.9c1.5,1.8,2.9,3.6,4.3,5.5c1,1.3,3.8,3.6,4.2,5.3c0.2,0.7,0.2-0.3,0-1
					c0,0,0-0.1,0-0.1c-0.4-3.4-0.7-6.9-0.8-10.3c-0.1-3.4,0.1-6.9-0.1-10.3c-0.3-4.8-1.8-9.5-5.8-12.6c-1.9-1.5-4.4-2.4-6.2-4
					c-1.7-1.6-1-3.4,0-5.1c0.9-1.6,2.1-3.2,2.4-5.1c0.4-2.1-0.4-4.3-1.5-6.2c-2.3-3.9-7.4-8.2-12.3-7.6c-4,0.5-4.5,5.1-4.4,8.4
					c0.1,3.2,0.4,6.3,0.4,9.5c0,3.2-0.5,6.4-0.6,9.6C54.4,241.6,56.9,245.8,61,249.4z"/>
				<path class="st10" d="M102,299.7c1.2-2.9,2.6-5.7,4.4-8.3c2.4-3.7,5-7.2,6.6-11.3c1.6-4.2,1.4-8.6,1.6-13
					c0.1-3.2,1.1-6.5,0.8-9.7c-0.1-1.6-1-4.1-3-3.8c-1.6,0.2-2.5,2.1-3.1,3.4c-1,2.2-1.8,4.5-2.6,6.7c-0.3,0.9-0.6,1.8-1,2.6
					c-0.2,0.5-0.9,1.7-1.6,1.5c-1.1-0.3-0.1-4.9,0.1-5.8c0.9-4.2,2.1-8,2.3-12.3c0.3-6.2-0.2-13.6-6.3-17c-1.6-0.9-3.6-1.4-5.1-0.1
					c-1.5,1.3-1.9,3.6-2.1,5.4c-0.7,5.7,0.7,11.1,2.5,16.5c1.5,4.4,3.3,9,3.4,13.8c0.1,4.6-2.3,8.6-3.4,12.9
					c-1.8,6.9-1.4,10.5-1.4,12.8c0,2.8,0.1,5.6,0.3,8.3c0.2,2.6,0.4,5.1,0.7,7.7c0.1,0.5,0.1,1.1,0.2,1.6c-1-2.4-1.3-5.1-2.1-7.5
					c-1.4-4.2-3.1-8.4-4.5-12.6c-1.1-3.5-2.2-7.1-3.7-10.4c-1.4-3.2-3.1-6.5-5.8-8.8c-1.6-1.4-3.5-2.2-5.7-2.2
					c-1.4,0-2.6,0.5-3.9,0.8c-1.6,0.4-2.9,0.3-4.2-0.7c-4.3-3.3-5.7-9.3-8.9-13.5c-2.4-3.2-8.1-8.5-12.3-5.1c-2.2,1.8-2.8,5.3-2.7,8
					c0.1,3.4,1.6,6.5,3.4,9.3c1.9,3,4.3,5.7,6,8.8c1,1.8,1.2,3.6,1,5.6c-0.2,1.9-0.3,3.8,0.3,5.7c2,5.6,8.2,4.8,13,5
					c3.4,0.1,7,0.6,10.2,1.7c3.7,1.2,6.1,3.7,7.5,7.3c1,2.7,1.5,5.7,3.3,7.9c0.9,1.1,2,1.8,3.2,2.4c1.9,0.8,7.6,1.2,7.7,0.7
					c0.1-1.8,1-3.6,1.5-5.3C99.5,305.8,100.7,302.7,102,299.7z"/>
				<path class="st10" d="M128.6,298.7c-0.5-3.2-0.4-6.8-1.9-9.7c-0.1-0.2-0.4-0.3-0.6-0.2c-1.1,0.6-1.1,2.4-1.2,3.5
					c-0.1,1.8,0,3.6-0.3,5.4c-0.4,3.1-1.1,6.4-2.2,9.3c-1.3,3.4-3.6,5.3-7,6.3c-2.2,0.7-4.3,1.3-6.1,2.7c-1.6,1.3-2.8,3.1-3.6,5
					c-2.3,5.1-3.3,10.7-4.4,16.1c-0.7,3.6-1.3,7.3-2.2,10.9c-0.9,3.6-1.8,7.2-2.3,10.9c-0.1,0.2-0.2,0.4-0.3,0.6
					c-0.2,0.6,0.6,0.8,0.9,0.4c3.5-5.4,7.7-10.2,13.6-13.2c2.6-1.3,6.1-1.6,8.3-3.7c1.7-1.6,1.9-4,1.6-6.2c-0.3-2.9-1.7-5.2-3.1-7.6
					c-0.8-1.3-1.7-2.8-1.4-4.4c0.3-1.5,1.6-2.7,2.8-3.4c2.4-1.5,5.2-2.2,7.2-4.3c1.8-2,2.9-4.5,3.1-7.2
					C129.8,306.1,129.2,302.2,128.6,298.7z"/>
				<path class="st10" d="M81,317.2c-3.1-4-6.8-7.4-11-10.2c-2.2-1.5-7.5-4.4-8.6,0c-0.6,2.6,1.9,5.1,3.5,6.7
					c2.5,2.4,5.4,4.5,7.4,7.3c-2.6,0.8-5.3,1-7.6,2.8c-2.7,2.1-3.9,6.2-1.2,8.8c1.3,1.3,3,2,4.6,2.8c2.1,1,4.2,1.9,6.4,2.8
					c4.6,1.9,9.3,3.9,13.2,7c4,3.2,7.8,8.7,8.1,13.9c0,0.5-0.2,0,0.1-0.2c0.2,0.1,0.7-0.1,0.7-0.4c-0.1-7.8-1.5-15.2-4.7-22.4
					C89.2,329.6,85.5,323,81,317.2z"/>
			</g>
			<g>
				<path class="st11" d="M70.4,244.6c1.7,3.5,3.5,7,5.4,10.4c1.8,3.3,3.6,6.6,5,10.1c1.7,4.4,3.4,8.6,5.2,13
					c1.8,4.5,3.5,9.1,4.8,13.7c2.6,9.1,4.5,18.5,5.4,27.9c0.5,4.8,0.7,9.6,0.6,14.4c-0.1,3.8-0.5,7.5-0.9,11.2
					c-0.4,3.9-0.6,7.8-0.3,11.7c0.3,3.3,0.8,7.1,3.3,9.5c0.5,0.5,1.2-0.1,0.9-0.7c-3-6.2-2.8-12.9-2.3-19.6
					c0.3-3.7,0.8-7.4,0.9-11.1c0.2-4.7,0-9.5-0.5-14.2c-0.9-9.2-2.7-18.4-5.1-27.3c-1.2-4.6-2.7-9.1-4.5-13.5
					c-1.8-4.4-3.8-8.7-5.5-13.2c-3.1-8.1-7.7-15.2-11.9-22.7C70.7,243.9,70.2,244.2,70.4,244.6L70.4,244.6z"/>
			</g>
			<g>
				<path class="st11" d="M96.3,310.5c0.5-5.9,1-11.5,3-17.1c0.9-2.6,2-5.1,2.9-7.8c0.7-2.2,1.8-5.1,1.3-7.4c-0.1-0.3-0.4-0.2-0.5,0
					c-0.4,1.3-0.3,2.8-0.6,4.1c-0.3,1.3-0.6,2.6-1,3.9c-0.9,2.7-2,5.3-3,8c-1.9,5.2-2.9,10.9-2.5,16.4
					C95.9,310.8,96.3,310.8,96.3,310.5L96.3,310.5z"/>
			</g>
			<g>
				<path class="st11" d="M62.3,276.8c2.3,5.6,9.3,6,14.4,7.2c3.6,0.9,6.3,3.3,8.3,6.5c2.1,3.5,3.5,7.5,4.7,11.4c0,0,0.1,0,0.1,0
					c-1.4-6.7-3.5-14.9-10.4-18c-5.6-2.5-12.9-1.3-16.5-7.3C62.7,276.3,62.1,276.5,62.3,276.8L62.3,276.8z"/>
			</g>
			<g>
				<path class="st11" d="M92.6,309.6c0.3,0.4,0.5,0.8,0.8,1.1c0.1,0.2,0.3,0.4,0.5,0.5c0.2,0.1,0.4,0.3,0.6,0.3
					c0.1,0,0.2-0.1,0.1-0.2c-0.1-0.2-0.3-0.3-0.5-0.4c-0.2-0.1-0.3-0.3-0.5-0.4c-0.3-0.3-0.6-0.6-0.9-1
					C92.7,309.5,92.6,309.6,92.6,309.6L92.6,309.6z"/>
			</g>
			<g>
				<path class="st11" d="M78,327.5c4,3.3,7.7,7.2,10.7,11.5c1.4,2,2.7,4.2,3.9,6.4c1.3,2.4,2.1,4.9,3.1,7.4
					c0.1,0.2,0.4,0.2,0.4-0.1c-0.6-5.3-3.9-9.8-6.6-14.2c-1.4-2.3-3.1-4.1-5-6c-1.9-2-3.9-3.8-6.1-5.4
					C78.1,326.8,77.8,327.3,78,327.5L78,327.5z"/>
			</g>
			<g>
				<path class="st11" d="M110,321.3c-1.9,1.1-2,4.2-2,6.1c-0.1,3.8,0.9,7.3-0.8,10.8c-1.5,3.2-3.9,5.9-5.7,8.9
					c-1.7,2.8-3.5,6.4-3.4,9.8c0,0.2,0.3,0.3,0.4,0.1c0.7-1.5,1-3.3,1.5-4.9c0.6-1.8,1.4-3.4,2.4-5c1.8-2.8,4-5.3,5.5-8.3
					c1.5-3.2,1.3-6.3,1.2-9.7c-0.1-2.2-0.3-5.7,1.5-7.3C110.7,321.5,110.4,321.1,110,321.3L110,321.3z"/>
			</g>
		</g>
		<path class="st3" d="M97.1,357.3c-7.8-0.1-22.6-0.2-22.6-0.2l3.7,27.3c0.8,6.1,6.1,10.7,12.3,10.7h6.4h0.6h6.4
			c6.2,0,11.4-4.6,12.3-10.7l3.7-27.3C119.7,357.1,104.9,357.1,97.1,357.3z"/>
	</g>
	<g>
		<g>
			<g>
				<polygon class="st12" points="473.9,307.1 429.4,395.2 299.8,396.1 339.8,305.9 				"/>
			</g>
			<g>
				<path class="st13" d="M213.7,395.6l0-7.1h83.9l38.6-84.7h134.2l3.4,3.3H342.8l-40.1,88.4C302.6,395.5,213.7,395.4,213.7,395.6z"
					/>
			</g>
			<g>
				<path class="st13" d="M406.6,355.7c-1.5,4.4-9.4,7.8-17.8,7.6s-13.9-3.9-12.5-8.3c1.5-4.4,9.4-7.8,17.8-7.6
					C402.5,347.6,408,351.3,406.6,355.7z"/>
			</g>
		</g>
		<g>
			<path class="st3" d="M302.6,396.1c-0.1,0-0.2,0-0.2-0.1c-0.3-0.1-0.4-0.5-0.3-0.7l40.3-88.7h131.5c0.3,0,0.6,0.3,0.6,0.6
				c0,0.3-0.3,0.6-0.6,0.6H343.1l-40,88.1C303.1,396,302.8,396.1,302.6,396.1z"/>
		</g>
	</g>
	<g>
		<g>
			<rect x="53.6" y="402.3" class="st14" width="154.2" height="34.2"/>
			<rect x="207" y="402.3" class="st15" width="277.5" height="34.2"/>
		</g>
		<polygon class="st16" points="207.9,402.3 207,402.3 53.6,402.3 53.6,408.6 207,408.6 207.9,408.6 484.5,408.6 484.5,402.3 		"/>
		<rect x="46.2" y="395.5" class="st17" width="168.4" height="8.4"/>
		<rect x="213.7" y="395.5" class="st18" width="277.5" height="8.4"/>
	</g>
	<g>
		<path class="st3" d="M169.6,216.1h-55.8c-3,0-5.4-2.4-5.4-5.4v-28.5c0-3,2.4-5.4,5.4-5.4h55.8c3,0,5.4,2.4,5.4,5.4v28.5
			C175,213.7,172.6,216.1,169.6,216.1z"/>
		<polygon class="st3" points="190.5,196.4 170.1,187.8 170.1,205 		"/>
		<g>
			<circle class="st2" cx="128.8" cy="196.4" r="3.8"/>
			<circle class="st2" cx="141.7" cy="196.4" r="3.8"/>
			<circle class="st2" cx="154.6" cy="196.4" r="3.8"/>
		</g>
	</g>
	<g>
		<path class="st1" d="M446.1,93.1H320.4c-8.1,0-14.6,6.5-14.6,14.6v59.6c0,8.1,6.5,14.6,14.6,14.6h11.3c0.3,5.4-0.5,13.4-5,23.7
			c14.5-6.7,22.9-16.8,27.3-23.7h92.2c8.1,0,14.6-6.5,14.6-14.6v-59.6C460.8,99.6,454.2,93.1,446.1,93.1z"/>
		<path class="st3" d="M392.5,121.5h-62.3c-1.7,0-3.1-1.4-3.1-3.1l0,0c0-1.7,1.4-3.1,3.1-3.1h62.3c1.7,0,3.1,1.4,3.1,3.1l0,0
			C395.6,120.1,394.2,121.5,392.5,121.5z"/>
		<path class="st19" d="M437.2,139.6H329c-1,0-1.9-0.9-1.9-1.9l0,0c0-1,0.9-1.9,1.9-1.9h108.3c1,0,1.9,0.9,1.9,1.9l0,0
			C439.1,138.7,438.3,139.6,437.2,139.6z"/>
		<path class="st19" d="M437.2,150.1H329c-1,0-1.9-0.9-1.9-1.9l0,0c0-1,0.9-1.9,1.9-1.9h108.3c1,0,1.9,0.9,1.9,1.9l0,0
			C439.1,149.3,438.3,150.1,437.2,150.1z"/>
		<path class="st19" d="M413.6,161.4H329c-1,0-1.9-0.9-1.9-1.9l0,0c0-1,0.9-1.9,1.9-1.9h84.6c1,0,1.9,0.9,1.9,1.9l0,0
			C415.5,160.5,414.7,161.4,413.6,161.4z"/>
		<path class="st3" d="M436.4,121.5h-29.7c-1.7,0-3.1-1.4-3.1-3.1l0,0c0-1.7,1.4-3.1,3.1-3.1h29.7c1.7,0,3.1,1.4,3.1,3.1l0,0
			C439.5,120.1,438.1,121.5,436.4,121.5z"/>
	</g>
	<g>
		<path class="st3" d="M361.7,258.7h-34.3c-1.1,0-2-0.9-2-2v-23.6c0-1.1,0.9-2,2-2h34.3c1.1,0,2,0.9,2,2v23.6
			C363.7,257.8,362.8,258.7,361.7,258.7z"/>
		<g>
			<g>
				<path class="st17" d="M344.8,249c-0.2,0-0.4-0.1-0.5-0.2l-18.4-15.2c-0.4-0.3-0.4-0.8-0.1-1.2c0.3-0.4,0.8-0.4,1.2-0.1
					l17.8,14.7l17.4-15.1c0.4-0.3,0.9-0.3,1.2,0.1c0.3,0.4,0.3,0.9-0.1,1.2l-17.9,15.6C345.1,248.9,344.9,249,344.8,249z"/>
			</g>
			<g>
				<path class="st17" d="M326.4,258c-0.2,0-0.4-0.1-0.6-0.2c-0.3-0.3-0.4-0.9,0-1.2l12.9-13.5c0.3-0.3,0.9-0.4,1.2,0
					c0.3,0.3,0.4,0.9,0,1.2L327,257.8C326.8,257.9,326.6,258,326.4,258z"/>
			</g>
			<g>
				<path class="st17" d="M362.7,257.5c-0.2,0-0.4-0.1-0.6-0.2l-12.8-12.8c-0.3-0.3-0.3-0.9,0-1.2c0.3-0.3,0.9-0.3,1.2,0l12.8,12.8
					c0.3,0.3,0.3,0.9,0,1.2C363.1,257.4,362.9,257.5,362.7,257.5z"/>
			</g>
		</g>
		<g>
			<g>
				<circle class="st20" cx="365.4" cy="230.2" r="11.3"/>
			</g>
			<g>
				<g>
					<path class="st3" d="M362.3,230.3L362.3,230.3c0.3,0.1,0.5,0.2,0.8,0.4c0.3,0.2,0.5,0.5,0.6,0.8c0.2,0.3,0.2,0.7,0.2,1.1
						c0,0.5-0.1,0.9-0.4,1.3c-0.2,0.4-0.6,0.7-1,0.9c-0.4,0.2-0.9,0.3-1.4,0.3c-0.5,0-1-0.1-1.4-0.3c-0.4-0.2-0.8-0.5-1-0.9
						s-0.4-0.8-0.4-1.3c0-0.4,0.1-0.7,0.2-1.1c0.2-0.3,0.4-0.6,0.6-0.8c0.3-0.2,0.5-0.4,0.8-0.5l0,0.1c-0.2-0.1-0.5-0.3-0.7-0.5
						c-0.2-0.2-0.4-0.5-0.5-0.8c-0.1-0.3-0.2-0.6-0.2-1c0-0.5,0.1-0.9,0.3-1.3c0.2-0.4,0.5-0.7,0.9-0.9c0.4-0.2,0.8-0.3,1.3-0.3
						s0.9,0.1,1.3,0.3c0.4,0.2,0.7,0.5,0.9,0.9s0.3,0.8,0.3,1.3c0,0.3-0.1,0.7-0.2,0.9c-0.1,0.3-0.3,0.5-0.5,0.8
						C362.8,230,362.5,230.1,362.3,230.3z M361.1,234.6c0.7,0,1.2-0.2,1.6-0.6c0.4-0.4,0.6-0.9,0.6-1.4c0-0.4-0.1-0.7-0.3-1.1
						c-0.2-0.3-0.5-0.6-0.8-0.7s-0.7-0.3-1.1-0.3c-0.4,0-0.8,0.1-1.1,0.3s-0.6,0.4-0.8,0.7c-0.2,0.3-0.3,0.7-0.3,1.1
						c0,0.6,0.2,1.1,0.6,1.4C359.9,234.4,360.4,234.6,361.1,234.6z M359.1,228.1c0,0.4,0.1,0.7,0.3,1c0.2,0.3,0.4,0.5,0.7,0.7
						c0.3,0.2,0.6,0.2,1,0.2s0.7-0.1,1-0.2c0.3-0.2,0.6-0.4,0.7-0.7c0.2-0.3,0.3-0.6,0.3-1c0-0.6-0.2-1.1-0.6-1.4s-0.9-0.5-1.5-0.5
						c-0.6,0-1.1,0.2-1.5,0.5C359.3,227,359.1,227.5,359.1,228.1z"/>
					<path class="st3" d="M367.9,235c-0.4,0-0.8-0.1-1.1-0.2c-0.4-0.1-0.7-0.3-1-0.6c0,0-0.1-0.1-0.1-0.1c0,0,0-0.1,0-0.1
						c0-0.1,0-0.1,0.1-0.2c0.1-0.1,0.1-0.1,0.2-0.1c0.1,0,0.1,0,0.2,0.1c0.3,0.2,0.5,0.4,0.9,0.5s0.6,0.2,0.9,0.2
						c0.6,0,1.1-0.1,1.5-0.3c0.4-0.2,0.7-0.5,1-0.9s0.3-0.9,0.3-1.4c0-0.5-0.1-0.9-0.3-1.3c-0.2-0.4-0.5-0.7-0.9-0.9
						s-0.9-0.3-1.4-0.3c-0.3,0-0.7,0.1-0.9,0.2c-0.3,0.1-0.5,0.2-0.7,0.3c-0.2,0.1-0.3,0.2-0.4,0.2c0,0-0.1,0-0.1,0
						c0,0-0.1-0.1-0.1-0.1c0,0,0-0.1,0-0.2l0.6-3.7c0,0,0-0.1,0.1-0.1c0-0.1,0.1-0.1,0.2-0.1h4.1c0.1,0,0.1,0,0.2,0.1
						c0.1,0.1,0.1,0.1,0.1,0.2c0,0.1,0,0.1-0.1,0.2c-0.1,0.1-0.1,0.1-0.2,0.1h-4l0.1-0.1l-0.6,3.4l-0.3-0.1c0.1-0.1,0.3-0.2,0.6-0.3
						c0.2-0.1,0.5-0.2,0.8-0.2c0.3-0.1,0.6-0.1,0.9-0.1c0.6,0,1.1,0.1,1.5,0.4c0.5,0.3,0.8,0.6,1.1,1c0.3,0.4,0.4,1,0.4,1.6
						c0,0.6-0.1,1.2-0.4,1.7c-0.3,0.5-0.7,0.9-1.2,1.1C369.1,234.8,368.5,235,367.9,235z"/>
				</g>
			</g>
		</g>
	</g>
	<g>
		<g>
			<path class="st2" d="M479.2,226.1h-66.9c-2.2,0-4-1.8-4-4v-11.3c0-2.2,1.8-4,4-4h66.9c2.2,0,4,1.8,4,4v11.3
				C483.2,224.3,481.4,226.1,479.2,226.1z"/>
		</g>
		<g>
			<path class="st3" d="M417.6,221.5c-0.3,0-0.5-0.1-0.7-0.3c-0.2-0.2-0.3-0.5-0.2-0.8l0.3-2.5c0-0.1,0-0.1,0-0.1c0,0-0.1,0-0.2,0
				l-2.1,1.5c-0.3,0.2-0.5,0.3-0.8,0.2c-0.3-0.1-0.5-0.2-0.7-0.5c-0.2-0.3-0.2-0.6-0.1-0.9c0.1-0.3,0.3-0.4,0.6-0.5l2.3-1
				c0.1,0,0.1-0.1,0.1-0.1c0,0,0-0.1-0.1-0.1l-2.3-1c-0.3-0.1-0.5-0.3-0.6-0.6c-0.1-0.3-0.1-0.5,0.1-0.8c0.2-0.3,0.4-0.4,0.7-0.5
				c0.3-0.1,0.5,0,0.8,0.2l2.1,1.5c0.1,0,0.1,0.1,0.2,0c0,0,0.1-0.1,0-0.1l-0.3-2.5c0-0.3,0.1-0.6,0.3-0.8c0.2-0.2,0.4-0.3,0.8-0.3
				c0.3,0,0.5,0.1,0.7,0.3c0.2,0.2,0.3,0.5,0.2,0.8l-0.3,2.5c0,0.1,0,0.1,0,0.1c0,0,0.1,0,0.2,0l2.1-1.5c0.3-0.2,0.5-0.3,0.8-0.2
				c0.3,0.1,0.5,0.2,0.6,0.5c0.2,0.3,0.2,0.6,0.1,0.9c-0.1,0.3-0.3,0.4-0.6,0.5l-2.3,1c-0.1,0-0.1,0.1-0.1,0.1c0,0,0,0.1,0.1,0.1
				l2.3,1c0.3,0.1,0.5,0.3,0.6,0.6c0.1,0.3,0.1,0.5-0.1,0.8c-0.1,0.3-0.4,0.4-0.6,0.5c-0.3,0.1-0.6,0-0.8-0.2l-2.1-1.5
				c-0.1,0-0.1-0.1-0.2,0c0,0-0.1,0.1,0,0.1l0.3,2.5c0,0.3,0,0.6-0.2,0.8C418.1,221.4,417.9,221.5,417.6,221.5z"/>
		</g>
		<g>
			<path class="st3" d="M431.2,221.5c-0.3,0-0.5-0.1-0.7-0.3c-0.2-0.2-0.3-0.5-0.2-0.8l0.3-2.5c0-0.1,0-0.1,0-0.1c0,0-0.1,0-0.2,0
				l-2.1,1.5c-0.3,0.2-0.5,0.3-0.8,0.2c-0.3-0.1-0.5-0.2-0.7-0.5c-0.2-0.3-0.2-0.6-0.1-0.9c0.1-0.3,0.3-0.4,0.6-0.5l2.3-1
				c0.1,0,0.1-0.1,0.1-0.1c0,0,0-0.1-0.1-0.1l-2.3-1c-0.3-0.1-0.5-0.3-0.6-0.6c-0.1-0.3-0.1-0.5,0.1-0.8c0.2-0.3,0.4-0.4,0.7-0.5
				c0.3-0.1,0.5,0,0.8,0.2l2.1,1.5c0.1,0,0.1,0.1,0.2,0c0,0,0.1-0.1,0-0.1l-0.3-2.5c0-0.3,0.1-0.6,0.3-0.8c0.2-0.2,0.4-0.3,0.8-0.3
				c0.3,0,0.5,0.1,0.7,0.3c0.2,0.2,0.3,0.5,0.2,0.8l-0.3,2.5c0,0.1,0,0.1,0,0.1c0,0,0.1,0,0.2,0l2.1-1.5c0.3-0.2,0.5-0.3,0.8-0.2
				c0.3,0.1,0.5,0.2,0.6,0.5c0.2,0.3,0.2,0.6,0.1,0.9c-0.1,0.3-0.3,0.4-0.6,0.5l-2.3,1c-0.1,0-0.1,0.1-0.1,0.1c0,0,0,0.1,0.1,0.1
				l2.3,1c0.3,0.1,0.5,0.3,0.6,0.6c0.1,0.3,0.1,0.5-0.1,0.8c-0.1,0.3-0.4,0.4-0.6,0.5c-0.3,0.1-0.6,0-0.8-0.2l-2.1-1.5
				c-0.1,0-0.1-0.1-0.2,0c0,0-0.1,0.1,0,0.1l0.3,2.5c0,0.3,0,0.6-0.2,0.8C431.8,221.4,431.5,221.5,431.2,221.5z"/>
		</g>
		<g>
			<path class="st3" d="M444.8,221.5c-0.3,0-0.5-0.1-0.7-0.3c-0.2-0.2-0.3-0.5-0.2-0.8l0.3-2.5c0-0.1,0-0.1,0-0.1c0,0-0.1,0-0.2,0
				l-2.1,1.5c-0.3,0.2-0.5,0.3-0.8,0.2c-0.3-0.1-0.5-0.2-0.7-0.5c-0.2-0.3-0.2-0.6-0.1-0.9c0.1-0.3,0.3-0.4,0.6-0.5l2.3-1
				c0.1,0,0.1-0.1,0.1-0.1c0,0,0-0.1-0.1-0.1l-2.3-1c-0.3-0.1-0.5-0.3-0.6-0.6c-0.1-0.3-0.1-0.5,0.1-0.8c0.2-0.3,0.4-0.4,0.7-0.5
				c0.3-0.1,0.5,0,0.8,0.2l2.1,1.5c0.1,0,0.1,0.1,0.2,0c0,0,0.1-0.1,0-0.1l-0.3-2.5c0-0.3,0.1-0.6,0.3-0.8c0.2-0.2,0.4-0.3,0.8-0.3
				c0.3,0,0.5,0.1,0.7,0.3c0.2,0.2,0.3,0.5,0.2,0.8l-0.3,2.5c0,0.1,0,0.1,0,0.1c0,0,0.1,0,0.2,0l2.1-1.5c0.3-0.2,0.5-0.3,0.8-0.2
				c0.3,0.1,0.5,0.2,0.6,0.5c0.2,0.3,0.2,0.6,0.1,0.9c-0.1,0.3-0.3,0.4-0.6,0.5l-2.3,1c-0.1,0-0.1,0.1-0.1,0.1c0,0,0,0.1,0.1,0.1
				l2.3,1c0.3,0.1,0.5,0.3,0.6,0.6c0.1,0.3,0.1,0.5-0.1,0.8c-0.1,0.3-0.4,0.4-0.6,0.5c-0.3,0.1-0.6,0-0.8-0.2l-2.1-1.5
				c-0.1,0-0.1-0.1-0.2,0c0,0-0.1,0.1,0,0.1l0.3,2.5c0,0.3,0,0.6-0.2,0.8C445.4,221.4,445.2,221.5,444.8,221.5z"/>
		</g>
		<g>
			<path class="st3" d="M458.5,221.5c-0.3,0-0.5-0.1-0.7-0.3c-0.2-0.2-0.3-0.5-0.2-0.8l0.3-2.5c0-0.1,0-0.1,0-0.1c0,0-0.1,0-0.2,0
				l-2.1,1.5c-0.3,0.2-0.5,0.3-0.8,0.2c-0.3-0.1-0.5-0.2-0.7-0.5c-0.2-0.3-0.2-0.6-0.1-0.9c0.1-0.3,0.3-0.4,0.6-0.5l2.3-1
				c0.1,0,0.1-0.1,0.1-0.1c0,0,0-0.1-0.1-0.1l-2.3-1c-0.3-0.1-0.5-0.3-0.6-0.6c-0.1-0.3-0.1-0.5,0.1-0.8c0.2-0.3,0.4-0.4,0.7-0.5
				c0.3-0.1,0.5,0,0.8,0.2l2.1,1.5c0.1,0,0.1,0.1,0.2,0c0,0,0.1-0.1,0-0.1l-0.3-2.5c0-0.3,0.1-0.6,0.3-0.8c0.2-0.2,0.4-0.3,0.8-0.3
				c0.3,0,0.5,0.1,0.7,0.3c0.2,0.2,0.3,0.5,0.2,0.8l-0.3,2.5c0,0.1,0,0.1,0,0.1c0,0,0.1,0,0.2,0l2.1-1.5c0.3-0.2,0.5-0.3,0.8-0.2
				c0.3,0.1,0.5,0.2,0.6,0.5c0.2,0.3,0.2,0.6,0.1,0.9c-0.1,0.3-0.3,0.4-0.6,0.5l-2.3,1c-0.1,0-0.1,0.1-0.1,0.1c0,0,0,0.1,0.1,0.1
				l2.3,1c0.3,0.1,0.5,0.3,0.6,0.6c0.1,0.3,0.1,0.5-0.1,0.8c-0.1,0.3-0.4,0.4-0.6,0.5c-0.3,0.1-0.6,0-0.8-0.2l-2.1-1.5
				c-0.1,0-0.1-0.1-0.2,0c0,0-0.1,0.1,0,0.1l0.3,2.5c0,0.3,0,0.6-0.2,0.8C459,221.4,458.8,221.5,458.5,221.5z"/>
		</g>
		<g>
			<path class="st21" d="M472.1,221.5c-0.3,0-0.5-0.1-0.7-0.3c-0.2-0.2-0.3-0.5-0.2-0.8l0.3-2.5c0-0.1,0-0.1,0-0.1c0,0-0.1,0-0.2,0
				l-2.1,1.5c-0.3,0.2-0.5,0.3-0.8,0.2c-0.3-0.1-0.5-0.2-0.7-0.5c-0.2-0.3-0.2-0.6-0.1-0.9c0.1-0.3,0.3-0.4,0.6-0.5l2.3-1
				c0.1,0,0.1-0.1,0.1-0.1c0,0,0-0.1-0.1-0.1l-2.3-1c-0.3-0.1-0.5-0.3-0.6-0.6c-0.1-0.3-0.1-0.5,0.1-0.8c0.2-0.3,0.4-0.4,0.7-0.5
				c0.3-0.1,0.5,0,0.8,0.2l2.1,1.5c0.1,0,0.1,0.1,0.2,0c0,0,0.1-0.1,0-0.1l-0.3-2.5c0-0.3,0.1-0.6,0.3-0.8c0.2-0.2,0.4-0.3,0.8-0.3
				c0.3,0,0.5,0.1,0.7,0.3c0.2,0.2,0.3,0.5,0.2,0.8l-0.3,2.5c0,0.1,0,0.1,0,0.1c0,0,0.1,0,0.2,0l2.1-1.5c0.3-0.2,0.5-0.3,0.8-0.2
				c0.3,0.1,0.5,0.2,0.6,0.5c0.2,0.3,0.2,0.6,0.1,0.9c-0.1,0.3-0.3,0.4-0.6,0.5l-2.3,1c-0.1,0-0.1,0.1-0.1,0.1c0,0,0,0.1,0.1,0.1
				l2.3,1c0.3,0.1,0.5,0.3,0.6,0.6c0.1,0.3,0.1,0.5-0.1,0.8c-0.1,0.3-0.4,0.4-0.6,0.5c-0.3,0.1-0.6,0-0.8-0.2l-2.1-1.5
				c-0.1,0-0.1-0.1-0.2,0c0,0-0.1,0.1,0,0.1l0.3,2.5c0,0.3,0,0.6-0.2,0.8C472.7,221.4,472.4,221.5,472.1,221.5z"/>
		</g>
	</g>
</g>
</svg>
